<svg xmlns="http://www.w3.org/2000/svg" class="icon" width="20px" height="20px" viewBox="0 0 1024 1024" version="1.1">
    <path fill="#fff" d="M512 0.639201C229.583101 0.639201 0.639201 229.583101 0.639201 512s228.9439 511.360799 511.360799 511.360799c282.416899 0 511.360799-228.9439 511.360799-511.360799S794.416899 0.639201 512 0.639201zM669.933783 978.961898c-25.31236 4.912899-34.273958-10.523805-34.273958-23.793618 0-16.25616 0.598292-69.675466 0.598292-135.874956 0-46.234687-15.953179-76.535371-33.826517-91.845513 111.068844-12.218966 227.620754-54.14416 227.620754-244.441968 0-54.110921-19.282137-98.346187-51.234517-132.990881 5.107216-12.47209 22.244195-62.851356-4.962757-131.098846 0 0-41.793518-13.309443-136.99228 50.83182-39.800489-11.037723-82.470991-16.538687-124.814222-16.72022-42.402037 0.168749-85.061034 5.682497-124.806552 16.72022-95.266517-64.141263-137.121398-50.83182-137.121398-50.83182-27.139196 68.247491-9.995825 118.625478-4.895001 131.098846-31.888459 34.645973-51.303551 78.87996-51.303551 132.990881 0 189.855481 116.383161 232.362347 227.077433 244.861283-14.226057 12.413283-27.137918 34.201089-31.64812 66.278752-28.395865 12.606322-100.638362 34.519411-145.101184-41.201618 0 0-26.335081-47.523316-76.3679-51.041478 0 0-48.707116-0.599571-3.438901 30.120429 0 0 32.687461 15.223211 55.362477 72.453433 0 0 29.266457 96.400459 167.96029 66.430881 0.213493 41.394657 0.651985 72.531416 0.651985 84.27226 0 13.170097-9.077933 28.430382-34.033618 23.843476C156.245014 913.542232 13.423221 727.828774 13.423221 508.919051 13.423221 235.26432 236.642437 13.423221 511.974432 13.423221 787.352449 13.423221 1010.576779 235.26432 1010.576779 508.919051 1010.576779 727.766132 867.853423 913.342801 669.933783 978.961898z"/>
</svg>